<svg width="25" height="25" viewBox="0 0 25 25" fill="none" xmlns="http://www.w3.org/2000/svg">
<g clip-path="url(#clip0_295_26)">
<path d="M12.5 0C5.60728 0 0 5.60757 0 12.5C0 19.3924 5.60728 25 12.5 25C19.3927 25 25 19.3924 25 12.5C25 5.60757 19.3927 0 12.5 0ZM14.1304 19.0217C14.1304 19.9222 13.4005 20.6521 12.5 20.6521C11.5995 20.6521 10.8696 19.9222 10.8696 19.0217V10.8696C10.8696 9.96909 11.5995 9.23916 12.5 9.23916C13.4005 9.23916 14.1304 9.96909 14.1304 10.8696V19.0217ZM12.5 7.60869C11.5995 7.60869 10.8696 6.87876 10.8696 5.97827C10.8696 5.07778 11.5995 4.34785 12.5 4.34785C13.4005 4.34785 14.1304 5.07778 14.1304 5.97827C14.1304 6.87876 13.4005 7.60869 12.5 7.60869Z" fill="#D30303"/>
</g>
<defs>
<clipPath id="clip0_295_26">
<rect width="25" height="25" fill="white"/>
</clipPath>
</defs>
</svg>
